<svg id="Layer_1" data-name="Layer 1" xmlns="http://www.w3.org/2000/svg" viewBox="0 0 115 115"><defs><style>.cls-1{fill:#fcb7b4;}.cls-2{fill:none;stroke:#c44139;stroke-miterlimit:10;stroke-width:2px;}.cls-3{fill:#ff484a;}</style></defs><g id="Icon:_Fill_and_sign" data-name="Icon: Fill and sign"><g id="Group_73748" data-name="Group 73748"><rect id="Rectangle_218215" data-name="Rectangle 218215" class="cls-1" x="8" y="74.85" width="101.66" height="26.71" rx="2.88"/><rect id="Rectangle_218216" data-name="Rectangle 218216" class="cls-1" x="8" y="46.96" width="101.66" height="7.03" rx="2.97"/><rect id="Rectangle_218217" data-name="Rectangle 218217" class="cls-1" x="8" y="34.04" width="101.66" height="7.03" rx="2.97"/><rect id="Rectangle_218218" data-name="Rectangle 218218" class="cls-1" x="8" y="21.12" width="101.66" height="7.03" rx="2.97"/></g><path id="Path_61402" data-name="Path 61402" class="cls-2" d="M110.57,67.43a22.09,22.09,0,0,1,0,15c-1.76,4.57-5.23,8-9.26,9.17a10.4,10.4,0,0,1-12-5.1c-1.94-3.57-2-8.09-1.86-12.27.1-2.35.31-4.84,1.53-6.59s3.78-2.18,5-.27a5.54,5.54,0,0,1,.71,2.34,17.47,17.47,0,0,1-1.37,8.2c-2.32,5.93-6.61,10.88-11.92,12S69.84,87.56,67.7,81.27c-.58-1.7-.8-3.83.18-5.12,1.1-1.44,3.29-.93,4.33.7a7.17,7.17,0,0,1,.47,5.8,10.18,10.18,0,0,1-4.31,5.41,14.05,14.05,0,0,1-6.1,2.15c-4.41.54-12.59.32-18.6-6.92"/><g id="Group_73738" data-name="Group 73738"><path id="Path_61403" data-name="Path 61403" class="cls-3" d="M88.22,22.57,37.33,82.77,24.81,71.7,75.7,11.5c1.28-1.5,3.23-1.95,4.36-1l8.42,7.6C89.61,19.06,89.49,21.06,88.22,22.57Z"/><g id="Group_73737" data-name="Group 73737"><path id="Path_61404" data-name="Path 61404" class="cls-3" d="M37.32,82.77,21.18,89.64,24.81,71.7Z"/></g></g></g></svg>